<svg width="1200" height="320" viewBox="0 0 1200 320" fill="none" xmlns="http://www.w3.org/2000/svg">
<rect width="1200" height="320" fill="#050505"/>
<g transform="translate(48 38)">
<path d="M0 0H93C151 0 186 28 186 69C186 95 172 116 148 127C178 138 196 160 196 189C196 235 157 264 93 264H0V0ZM63 51V213H96C123 213 138 203 138 182C138 161 123 150 96 150H63V105H94C118 105 130 95 130 78C130 61 118 51 94 51H63Z" fill="#F5F5F5"/>
<path d="M0 213L202 0L161 133L45 230L0 213Z" fill="#F5F5F5"/>
<path d="M0 213L45 230L202 0L162 45L0 213Z" fill="#050505"/>
</g>
<text x="300" y="143" fill="#F5F5F5" font-family="Arial, Helvetica, sans-serif" font-size="74" font-weight="600" letter-spacing="18">BREAKTHROUGH</text>
<text x="304" y="198" fill="#A9ADB5" font-family="Arial, Helvetica, sans-serif" font-size="18" font-weight="500" letter-spacing="8">REAL STORIES. LIMITLESS WORLDS.</text>
</svg>
